<?xml version="1.0" encoding="UTF-8" standalone="no"?>
<!-- Created with Inkscape (http://www.inkscape.org/) -->

<svg
   width="212.12711mm"
   height="212.10278mm"
   viewBox="0 0 212.12711 212.10278"
   version="1.1"
   id="svg1"
   xml:space="preserve"
   xmlns:xlink="http://www.w3.org/1999/xlink"
   xmlns="http://www.w3.org/2000/svg"
   xmlns:svg="http://www.w3.org/2000/svg"><defs
     id="defs1"><linearGradient
       id="linearGradient28"><stop
         style="stop-color:#d291f4;stop-opacity:1;"
         offset="0"
         id="stop28" /><stop
         style="stop-color:#a760e4;stop-opacity:1;"
         offset="1"
         id="stop29" /></linearGradient><radialGradient
       xlink:href="#linearGradient28"
       id="radialGradient29"
       cx="-169.98808"
       cy="376.66675"
       fx="-169.98808"
       fy="376.66675"
       r="106.06355"
       gradientTransform="matrix(1,0,0,0.99988534,0,0.04318921)"
       gradientUnits="userSpaceOnUse" /></defs><g
     id="layer1"
     transform="translate(276.05164,-270.61535)"><path
       style="fill:url(#radialGradient29)"
       d="m -211.13249,482.60355 c -18.47656,-0.5338 -27.62802,-2.10286 -36.77708,-6.30561 -6.06834,-2.78757 -12.34701,-7.72538 -16.8408,-13.24432 -5.39776,-6.62911 -9.18533,-16.01278 -10.40569,-25.77997 -0.87876,-7.03328 -0.96142,-13.34093 -0.86335,-65.88207 0.10322,-55.29655 0.0839,-54.4624 1.42308,-61.38333 2.36744,-12.23488 9.33439,-23.07207 19.17105,-29.82083 7.65208,-5.24996 16.37261,-7.89831 30.00529,-9.11235 4.96374,-0.44204 104.57935,-0.65198 110.06666,-0.23196 11.23008,0.85958 16.184151,1.83548 22.277911,4.38854 5.26462,2.20568 9.94207,5.26097 13.93608,9.10298 6.66974,6.41591 10.94554,13.92507 13.11228,23.02778 2.09426,8.79821 2.19421,12.26825 2.06528,71.70208 -0.11476,52.8974 -0.13359,53.72655 -1.39093,61.25104 -2.03841,12.19878 -7.99175,22.76727 -16.79541,29.81556 -2.14723,1.71909 -6.70217,4.59807 -9.05676,5.72438 -9.788751,4.68243 -17.486751,6.13229 -35.393241,6.66603 -6.95006,0.20716 -77.82268,0.27595 -84.53437,0.082 z"
       id="path28" /><path
       style="fill:#ffffff;stroke-width:0.580439"
       d="m -167.57696,452.19456 c -0.73796,-0.12227 -2.35732,-0.68512 -3.21102,-1.11607 -3.63518,-1.83503 -6.42512,-5.83976 -7.30698,-10.48859 -0.20084,-1.05871 -0.23221,-4.3773 -0.23221,-24.56469 0,-22.87231 0.006,-23.37139 0.31264,-24.87473 1.00593,-4.93618 4.17634,-9.00988 8.31219,-10.68042 2.01646,-0.81449 1.54131,-0.79971 25.85262,-0.80422 15.04931,-0.003 22.90823,0.0496 23.57367,0.15703 4.96218,0.80151 8.93063,4.75683 10.55017,10.51526 0.4304,1.53035 0.4304,1.53035 0.4304,25.56474 0,24.03439 0,24.03439 -0.35002,25.40916 -0.99079,3.89147 -3.08423,7.0999 -5.86445,8.98791 -1.2428,0.84397 -2.29235,1.31554 -3.76781,1.6929 -1.17701,0.30103 -1.66747,0.30675 -24.55813,0.28625 -12.84642,-0.0115 -23.5299,-0.0496 -23.74107,-0.0845 z m 46.55047,-5.42538 c 2.11186,-0.39756 4.08971,-2.04225 5.16853,-4.29794 1.19371,-2.49591 1.12549,-0.78868 1.07703,-26.9523 -0.0432,-23.34331 -0.0432,-23.34331 -0.47709,-24.57191 -0.99583,-2.81992 -2.77584,-4.77189 -4.96931,-5.44939 -0.98602,-0.30455 -1.37319,-0.30961 -23.52338,-0.30782 -18.97778,0.002 -22.64994,0.0362 -23.34129,0.22019 -2.47924,0.6599 -4.53858,3.00001 -5.44026,6.18196 -0.33947,1.19796 -0.33947,1.19796 -0.3881,23.46624 -0.0326,14.90152 0.005,22.73293 0.11295,23.6728 0.19018,1.65294 0.70908,3.28339 1.41639,4.45045 1.08231,1.7858 3.00434,3.23673 4.73551,3.57482 1.00134,0.19556 44.59325,0.20788 45.62902,0.0129 z m -27.65975,-6.07064 c -1.74089,-0.48821 -2.71967,-1.16365 -8.20623,-5.66298 -8.25832,-6.77233 -11.19724,-9.47582 -11.84639,-10.89736 -0.82943,-1.81634 -1.03806,-3.64724 -0.58962,-5.17436 0.795,-2.70732 2.48332,-4.92746 4.45849,-5.86289 0.97232,-0.46048 1.17677,-0.49993 2.59135,-0.49993 1.49433,0 1.56473,0.016 2.61076,0.59276 1.57132,0.86641 3.64161,2.34387 6.63699,4.73646 4.63232,3.70014 3.69837,3.86183 7.06622,-1.22338 1.60745,-2.42714 4.46079,-6.79723 6.34075,-9.7113 5.76862,-8.94179 8.78341,-13.27877 9.93096,-14.28633 2.45265,-2.15345 6.77623,-1.84548 9.27496,0.66068 2.13648,2.14282 2.90018,5.6166 1.74633,7.9434 -2.35197,4.74288 -17.64954,29.21403 -22.65681,36.24355 -1.1377,1.59717 -2.07001,2.40605 -3.3659,2.92025 -1.10693,0.43923 -2.86708,0.53686 -3.99186,0.22143 z m -41.92688,6.31398 c -1.01127,-0.22514 -0.33491,-0.008 -16.12531,-5.17419 -6.96844,-2.27983 -13.6374,-4.46094 -14.81993,-4.84692 -3.0662,-1.0008 -4.33862,-1.69533 -5.85089,-3.19358 -1.33719,-1.3248 -2.04962,-2.45533 -2.76041,-4.38041 -0.3809,-1.03163 -0.43221,-1.40317 -0.4917,-3.56088 -0.0504,-1.82902 -0.006,-2.70485 0.18247,-3.63744 0.13689,-0.6756 1.56579,-5.50029 3.17534,-10.72154 1.60953,-5.22124 5.6566,-18.40816 8.99348,-29.30427 6.59056,-21.52054 8.71578,-28.14722 9.40723,-29.33271 1.16591,-1.99896 3.5296,-4.25141 5.4763,-5.21856 0.85347,-0.42401 1.37631,-0.5686 2.44968,-0.67739 2.48793,-0.25217 3.00945,-0.1134 16.12278,4.29016 14.59436,4.90091 21.63433,7.39289 23.4201,8.29017 0.94561,0.47512 2.48886,1.99662 3.11604,3.07212 0.52402,0.89859 1.23305,2.6285 1.47585,3.60086 0.1129,0.4521 0.18818,1.73804 0.18432,3.14828 -0.005,1.9491 -0.0711,2.65017 -0.36054,3.84297 -0.354,1.45896 -0.354,1.45896 -5.49472,1.54881 -5.49561,0.096 -6.47534,0.21024 -8.57074,0.99895 -2.32273,0.87427 -4.1216,2.0096 -5.92141,3.73722 -2.83673,2.72294 -4.69024,6.04327 -5.74917,10.2989 -0.40177,1.61469 -0.40177,1.61469 -0.44822,25.56565 -0.0452,23.31691 -0.0384,23.9979 0.25882,25.72371 0.16788,0.97501 0.45572,2.23771 0.63963,2.806 0.26186,0.80916 0.2949,1.08083 0.15235,1.25259 -0.29987,0.36131 -2.94209,1.61423 -3.92477,1.86109 -1.0818,0.27175 -3.33944,0.27694 -4.53658,0.0104 z m -9.57981,-17.18925 c 0.0947,-0.0965 1.46773,-4.42566 3.0512,-9.62031 3.77386,-12.38035 11.61174,-37.89327 13.83781,-45.04317 1.6025,-5.14706 1.74561,-5.70295 1.60375,-6.22976 -0.26477,-0.9833 -1.18521,-1.59274 -2.7058,-1.79158 -0.67371,-0.0881 -0.82167,-0.0504 -1.3703,0.34892 -0.70727,0.5148 -0.2595,-0.85224 -8.21237,25.0722 -10.55951,34.42145 -10.93223,35.66098 -10.83706,36.04017 0.12251,0.48811 1.66547,1.23077 2.93716,1.41372 0.97352,0.14006 1.42083,0.0899 1.69561,-0.19019 z m 2.00194,-39.03775 c 0.89388,-0.68179 1.25725,-1.90982 0.75927,-2.56596 -0.39806,-0.52449 -10.39399,-3.90675 -11.05539,-3.74074 -0.74404,0.18673 -1.34504,1.5235 -1.10857,2.46568 0.1187,0.47294 0.83949,0.85913 3.31797,1.77768 2.33293,0.86461 7.0841,2.44816 7.35708,2.4521 0.11872,0.002 0.44707,-0.17323 0.72964,-0.38876 z m 3.84353,-11.1646 c 1.20447,-1.27253 1.08627,-2.2771 -0.34774,-2.9555 -1.67307,-0.79149 -9.23178,-3.14908 -10.0963,-3.14908 -0.43305,0 -1.27283,0.86007 -1.42265,1.45703 -0.16215,0.64603 0.44017,1.39242 1.55174,1.92293 1.21751,0.58106 8.91569,3.19835 9.45033,3.213 0.25241,0.007 0.56058,-0.16716 0.86462,-0.48838 z m 3.39804,-10.71575 c 0.71305,-0.43473 1.03612,-1.25506 0.80202,-2.03642 -0.15556,-0.51923 -0.2913,-0.64639 -1.05165,-0.98521 -2.52153,-1.12366 -9.21097,-3.42456 -9.95626,-3.42456 -0.5328,0 -1.23695,0.74997 -1.36999,1.45913 -0.18869,1.00583 0.0241,1.29302 1.39234,1.87918 2.68704,1.15115 8.92913,3.40798 9.44482,3.41478 0.1267,0.002 0.45912,-0.13643 0.73872,-0.3069 z m 29.51544,-12.12885 c -0.21117,-0.0713 -2.69907,-0.87094 -5.52868,-1.77685 -5.15064,-1.649 -20.98605,-7.00351 -27.16889,-9.18675 -1.90094,-0.67125 -3.44089,-1.30464 -3.65033,-1.5014 -0.56006,-0.52615 -1.24392,-1.67224 -1.59558,-2.67406 -0.62822,-1.7897 -0.10835,-4.67111 1.42232,-7.8834 0.92075,-1.93229 3.39538,-3.85753 4.94776,-3.84932 0.9369,0.005 3.01195,0.50113 6.05217,1.44714 4.74518,1.47655 23.31116,7.80976 28.74629,9.80591 2.87806,1.05702 3.22844,1.31881 4.05005,3.02604 0.464,0.96418 0.48015,1.06635 0.47321,2.9947 -0.007,1.84064 -0.047,2.11634 -0.51753,3.53222 -1.15446,3.47401 -2.49892,5.09459 -4.89667,5.90233 -0.98629,0.33226 -1.68894,0.38146 -2.33412,0.16344 z m 4.99117,-17.61385 c -2.82078,-0.65347 -29.55832,-9.61524 -33.21047,-11.13133 -1.28765,-0.53453 -1.29549,-0.55707 -0.72332,-2.07722 1.14689,-3.047 2.906,-5.06265 5.60413,-6.4214 1.23075,-0.61981 1.84319,-0.78893 3.55933,-0.98294 2.54812,-0.28806 4.72695,-1.6832 5.6261,-3.6025 0.52447,-1.11954 1.48852,-4.01255 2.25819,-6.77664 0.70041,-2.51533 1.09149,-3.24251 2.53626,-4.71596 0.90628,-0.92427 1.4289,-1.31208 2.3804,-1.76637 1.15275,-0.55038 1.31378,-0.58492 2.95579,-0.63392 2.92473,-0.0873 5.22122,0.66403 7.00065,2.29033 1.49205,1.36365 2.24982,2.86063 2.5471,5.03182 0.25099,1.83318 0.0216,3.18543 -0.94088,5.54733 -2.29183,5.62387 -2.31505,5.69162 -2.39613,6.99129 -0.1456,2.33375 0.33901,3.6074 2.35026,6.17695 1.92037,2.45344 2.82443,4.53575 2.83072,6.51998 0.004,1.25388 -0.54583,3.52693 -1.3034,5.38861 -0.10594,0.26034 -0.43562,0.31003 -1.07473,0.16197 z"
       id="path31" /></g></svg>
